<?xml version="1.0" encoding="utf-8"?>
<!DOCTYPE svg PUBLIC "-//W3C//DTD SVG 20010904//EN" "http://www.w3.org/TR/2001/REC-SVG-20010904/DTD/svg10.dtd">
<svg version="1.0" xmlns="http://www.w3.org/2000/svg" width="402pt" height="402pt" viewBox="0 0 402 402" style="" preserveAspectRatio="xMidYMid meet">
<g fill="#DD3835FD" stroke="#DD3835FD">
<path d="M 189.525 1.808 C 189.329 2.004 186.319 2.386 182.835 2.658 C 177.137 3.102 173.685 3.503 167.500 4.440 C 166.400 4.607 164.693 5.081 163.707 5.495 C 162.721 5.909 161.649 5.982 161.325 5.659 C 161.002 5.335 159.924 5.505 158.931 6.037 C 157.938 6.568 155.860 7.167 154.313 7.367 C 152.766 7.568 150.200 8.255 148.611 8.894 C 147.023 9.533 145.489 9.822 145.203 9.537 C 144.918 9.251 144.193 9.405 143.592 9.878 C 142.598 10.662 136.607 12.823 133.690 13.450 C 133.036 13.591 130.700 14.502 128.500 15.475 C 126.300 16.448 124.050 17.327 123.500 17.430 C 122.950 17.532 120.643 18.583 118.374 19.765 C 116.104 20.947 113.967 21.634 113.624 21.290 C 113.281 20.947 113.000 21.267 113.000 22.000 C 113.000 22.733 112.727 23.060 112.393 22.727 C 112.060 22.393 111.272 22.558 110.643 23.094 C 108.324 25.068 97.460 31.259 96.250 31.296 C 95.563 31.316 95.000 31.708 95.000 32.167 C 95.000 32.625 94.298 33.000 93.441 33.000 C 92.584 33.000 92.160 33.450 92.500 34.000 C 92.840 34.550 92.191 35.000 91.059 35.000 C 89.927 35.000 89.000 35.450 89.000 36.000 C 89.000 36.550 88.325 37.000 87.500 37.000 C 86.675 37.000 86.000 37.413 86.000 37.918 C 86.000 38.424 84.329 39.870 82.286 41.132 C 78.445 43.506 78.172 43.730 70.673 50.668 C 68.196 52.960 65.970 54.636 65.727 54.393 C 65.484 54.150 64.716 54.638 64.020 55.476 C 63.324 56.314 63.084 57.000 63.486 57.000 C 63.889 57.000 62.031 58.807 59.359 61.015 C 56.686 63.223 54.490 65.361 54.477 65.765 C 54.464 66.169 53.227 67.803 51.727 69.396 C 50.227 70.989 49.000 72.703 49.000 73.205 C 49.000 73.707 48.550 73.840 48.000 73.500 C 47.450 73.160 47.000 73.359 47.000 73.941 C 47.000 74.523 46.196 75.804 45.214 76.786 C 44.231 77.769 42.394 80.244 41.132 82.286 C 39.870 84.329 38.397 86.000 37.859 86.000 C 37.322 86.000 37.143 86.422 37.462 86.939 C 37.781 87.455 37.317 88.283 36.431 88.778 C 35.546 89.274 34.861 89.977 34.910 90.340 C 35.184 92.353 34.890 93.050 34.000 92.500 C 33.450 92.160 33.000 92.743 33.000 93.795 C 33.000 94.847 31.896 96.899 30.548 98.354 C 29.199 99.809 28.412 101.007 28.798 101.015 C 29.184 101.024 29.045 101.361 28.489 101.765 C 27.934 102.169 26.394 104.863 25.069 107.750 C 23.743 110.638 22.210 113.000 21.662 113.000 C 21.115 113.000 20.947 113.281 21.290 113.624 C 21.634 113.967 20.947 116.104 19.765 118.374 C 18.583 120.643 17.532 122.950 17.430 123.500 C 17.327 124.050 16.448 126.300 15.476 128.500 C 14.503 130.700 13.561 133.226 13.381 134.114 C 13.201 135.001 12.522 137.026 11.871 138.614 C 11.220 140.201 10.515 142.530 10.304 143.788 C 10.094 145.047 9.428 147.297 8.826 148.788 C 8.223 150.280 7.597 152.511 7.434 153.746 C 7.271 154.981 6.797 157.006 6.382 158.246 C 5.967 159.486 5.743 161.513 5.885 162.750 C 6.027 163.988 5.757 165.000 5.286 165.000 C 4.814 165.000 4.382 165.788 4.324 166.750 C 4.267 167.713 3.934 170.525 3.586 173.000 C 1.067 190.883 1.226 215.715 3.957 230.904 C 4.491 233.876 4.712 236.657 4.448 237.085 C 4.184 237.512 4.418 238.140 4.968 238.480 C 5.519 238.821 5.939 240.089 5.902 241.300 C 5.864 242.510 6.819 247.100 8.024 251.500 C 9.228 255.900 10.356 260.175 10.530 261.000 C 10.704 261.825 10.938 262.613 11.048 262.750 C 11.159 262.888 11.363 263.450 11.500 264.000 C 11.638 264.550 11.863 265.225 12.000 265.500 C 12.138 265.775 12.313 266.338 12.390 266.750 C 12.467 267.163 12.888 268.063 13.324 268.750 C 13.761 269.438 13.754 270.007 13.309 270.015 C 12.864 270.024 13.051 270.381 13.725 270.809 C 14.398 271.237 15.094 272.536 15.271 273.696 C 15.448 274.856 16.199 276.535 16.939 277.427 C 17.679 278.319 18.021 279.312 17.699 279.634 C 17.377 279.956 18.108 281.858 19.323 283.860 C 20.538 285.862 23.550 291.550 26.016 296.500 C 28.482 301.450 31.018 306.051 31.652 306.723 C 32.286 307.396 33.821 309.646 35.064 311.723 C 36.307 313.801 38.229 316.513 39.336 317.750 C 40.443 318.988 41.045 320.000 40.674 320.000 C 40.303 320.000 40.788 320.820 41.750 321.823 C 46.265 326.525 48.799 329.868 48.259 330.408 C 47.933 330.734 48.198 331.000 48.847 331.000 C 50.264 331.000 55.929 337.041 55.971 338.595 C 56.001 339.743 59.922 343.682 60.605 343.250 C 60.822 343.113 60.705 343.000 60.345 343.000 C 59.985 343.000 60.547 343.947 61.595 345.105 C 62.875 346.519 63.528 346.765 63.586 345.855 C 63.644 344.945 63.915 345.047 64.411 346.166 C 64.817 347.082 66.908 349.050 69.057 350.540 C 71.206 352.029 72.762 353.576 72.514 353.978 C 72.266 354.379 73.174 355.214 74.531 355.832 C 75.889 356.451 77.000 357.417 77.000 357.979 C 77.000 358.540 77.575 359.000 78.277 359.000 C 78.980 359.000 80.918 360.238 82.585 361.750 C 84.252 363.263 86.820 365.134 88.291 365.910 C 89.762 366.685 91.874 368.165 92.983 369.199 C 94.092 370.232 95.000 370.829 95.000 370.525 C 95.000 370.026 102.789 374.757 104.000 375.991 C 104.764 376.769 118.363 383.340 119.500 383.481 C 120.050 383.549 122.750 384.663 125.500 385.957 C 128.250 387.251 131.322 388.467 132.326 388.660 C 133.330 388.853 135.130 389.543 136.326 390.194 C 137.522 390.845 139.175 391.439 140.000 391.515 C 141.396 391.644 147.564 393.434 151.000 394.708 C 151.825 395.014 153.400 395.395 154.500 395.554 C 155.600 395.713 158.525 396.340 161.000 396.948 C 163.475 397.556 167.750 398.286 170.500 398.570 C 173.250 398.855 176.850 399.449 178.500 399.891 C 181.451 400.681 220.163 400.456 227.000 399.609 C 228.925 399.371 232.525 398.736 235.000 398.199 C 237.475 397.661 240.175 397.197 241.000 397.168 C 241.825 397.138 245.642 396.218 249.482 395.122 C 253.322 394.027 256.655 393.322 256.890 393.557 C 257.124 393.791 257.807 393.595 258.408 393.122 C 259.483 392.274 265.984 389.978 268.310 389.625 C 268.964 389.525 270.063 389.092 270.750 388.663 C 271.438 388.233 272.007 388.246 272.015 388.691 C 272.024 389.136 272.402 388.915 272.855 388.200 C 273.309 387.485 274.652 386.827 275.840 386.737 C 277.028 386.648 278.000 386.269 278.000 385.896 C 278.000 385.299 281.016 384.197 284.730 383.435 C 285.407 383.296 286.676 382.467 287.551 381.591 C 288.427 380.716 290.011 380.000 291.071 380.000 C 292.132 380.000 293.000 379.523 293.000 378.941 C 293.000 378.359 293.450 378.160 294.000 378.500 C 294.550 378.840 295.000 378.615 295.000 378.000 C 295.000 377.385 295.450 377.160 296.000 377.500 C 296.550 377.840 297.000 377.566 297.000 376.892 C 297.000 376.218 297.293 375.960 297.651 376.318 C 298.009 376.676 298.797 376.326 299.401 375.539 C 300.006 374.753 301.143 373.973 301.929 373.805 C 302.715 373.637 304.192 372.825 305.212 372.000 C 306.231 371.175 307.284 370.622 307.552 370.771 C 307.820 370.920 309.015 370.132 310.208 369.021 C 311.401 367.909 312.919 367.000 313.582 367.000 C 314.244 367.000 315.056 366.296 315.386 365.437 C 315.716 364.577 316.401 364.130 316.908 364.443 C 317.414 364.756 317.980 364.626 318.165 364.154 C 318.695 362.797 329.853 354.000 331.045 354.000 C 331.635 354.000 331.871 353.600 331.569 353.111 C 331.267 352.622 332.703 350.957 334.760 349.410 C 338.916 346.284 350.950 333.925 350.980 332.750 C 350.991 332.338 351.675 332.000 352.500 332.000 C 353.325 332.000 354.000 331.544 354.000 330.986 C 354.000 329.840 362.834 318.680 364.147 318.167 C 364.616 317.983 365.000 317.196 365.000 316.417 C 365.000 315.638 365.450 315.000 366.000 315.000 C 366.550 315.000 367.000 314.410 367.000 313.689 C 367.000 312.967 367.788 311.487 368.750 310.400 C 369.713 309.312 370.637 307.764 370.805 306.961 C 370.973 306.157 371.692 305.050 372.404 304.500 C 373.116 303.950 373.763 303.050 373.841 302.500 C 373.919 301.950 374.625 300.751 375.410 299.835 C 376.194 298.918 376.573 297.906 376.251 297.585 C 375.930 297.263 376.218 297.000 376.892 297.000 C 377.566 297.000 377.840 296.550 377.500 296.000 C 377.160 295.450 377.385 295.000 378.000 295.000 C 378.615 295.000 378.840 294.550 378.500 294.000 C 378.160 293.450 378.359 293.000 378.941 293.000 C 379.523 293.000 379.911 292.663 379.802 292.250 C 379.430 290.843 381.132 287.000 382.126 287.000 C 382.672 287.000 382.840 286.550 382.500 286.000 C 382.160 285.450 382.359 285.000 382.941 285.000 C 383.523 285.000 383.926 284.663 383.836 284.250 C 383.478 282.615 385.280 278.000 386.275 278.000 C 386.857 278.000 387.049 277.716 386.702 277.369 C 386.355 277.021 386.595 275.784 387.237 274.619 C 387.879 273.453 388.495 271.957 388.607 271.294 C 388.910 269.493 392.178 259.651 392.854 258.500 C 393.178 257.950 393.573 256.600 393.733 255.500 C 393.893 254.400 394.302 252.825 394.643 252.000 C 394.984 251.175 395.414 249.361 395.599 247.970 C 395.784 246.578 396.660 242.078 397.545 237.970 C 398.430 233.861 399.355 228.925 399.599 227.000 C 400.453 220.267 400.687 181.473 399.891 178.500 C 399.449 176.850 398.813 173.025 398.478 170.000 C 397.736 163.313 397.485 161.985 396.550 159.798 C 396.150 158.862 396.095 157.655 396.428 157.117 C 396.760 156.579 396.614 155.880 396.103 155.564 C 395.592 155.248 394.824 153.079 394.396 150.745 C 393.532 146.031 393.549 146.102 392.774 144.000 C 390.593 138.090 388.783 132.762 388.603 131.725 C 388.487 131.051 387.318 128.250 386.007 125.500 C 384.696 122.750 383.596 120.050 383.562 119.500 C 383.528 118.950 383.275 118.275 383.000 118.000 C 382.725 117.725 381.150 114.575 379.500 111.000 C 377.850 107.425 376.265 104.275 375.977 104.000 C 374.563 102.648 372.050 97.998 372.727 97.985 C 373.152 97.976 373.020 97.639 372.434 97.235 C 370.885 96.167 365.000 87.329 365.000 86.070 C 365.000 85.481 364.615 85.000 364.144 85.000 C 363.085 85.000 355.000 74.301 355.000 72.900 C 355.000 72.340 354.599 72.130 354.109 72.432 C 353.620 72.735 352.497 71.882 351.616 70.536 C 350.734 69.191 349.025 67.170 347.818 66.045 C 346.611 64.920 346.011 64.000 346.486 64.000 C 346.960 64.000 346.305 62.889 345.029 61.531 C 343.753 60.173 342.255 59.342 341.700 59.685 C 341.126 60.040 340.999 59.810 341.406 59.153 C 341.841 58.449 341.118 57.615 339.560 57.023 C 338.152 56.488 336.999 55.701 336.997 55.275 C 336.996 54.849 335.647 53.600 334.000 52.500 C 332.353 51.400 331.004 49.911 331.003 49.191 C 331.001 48.471 330.588 48.136 330.085 48.447 C 329.582 48.758 329.020 48.657 328.835 48.223 C 328.651 47.788 325.713 45.304 322.306 42.701 C 318.900 40.099 315.332 37.189 314.378 36.235 C 313.424 35.281 312.386 34.571 312.071 34.659 C 311.141 34.918 306.000 31.637 306.000 30.784 C 306.000 30.353 305.357 30.000 304.571 30.000 C 303.786 30.000 302.452 29.309 301.607 28.464 C 300.763 27.620 299.832 26.942 299.539 26.958 C 298.878 26.995 281.689 18.689 281.000 18.000 C 280.725 17.725 279.600 17.346 278.500 17.158 C 277.400 16.971 276.358 16.433 276.185 15.965 C 276.012 15.496 275.270 15.343 274.537 15.624 C 273.803 15.906 272.905 15.656 272.542 15.068 C 272.179 14.481 271.009 14.000 269.941 14.000 C 268.873 14.000 268.000 13.523 268.000 12.941 C 268.000 12.359 267.663 12.081 267.250 12.324 C 266.838 12.566 265.375 12.301 264.000 11.734 C 262.625 11.167 261.050 10.593 260.500 10.458 C 259.950 10.324 255.900 9.228 251.500 8.024 C 247.100 6.819 242.510 5.864 241.300 5.902 C 240.089 5.939 238.821 5.519 238.480 4.968 C 238.140 4.418 237.507 4.187 237.074 4.454 C 236.640 4.722 233.634 4.492 230.393 3.943 C 219.647 2.122 190.722 0.611 189.525 1.808 M 200.975 60.000 C 201.905 60.000 206.136 66.804 206.433 68.777 C 206.539 69.480 207.047 70.155 207.563 70.277 C 208.078 70.400 208.438 71.063 208.361 71.750 C 208.285 72.438 208.697 73.000 209.278 73.000 C 209.858 73.000 209.996 73.338 209.583 73.750 C 209.171 74.163 209.433 74.501 210.167 74.503 C 210.900 74.504 211.561 75.179 211.635 76.003 C 211.709 76.826 211.837 77.275 211.920 77.000 C 212.003 76.725 212.690 77.619 213.448 78.987 C 214.205 80.356 214.569 81.888 214.258 82.392 C 213.946 82.896 214.211 82.988 214.845 82.595 C 215.480 82.203 216.000 82.359 216.000 82.941 C 216.000 83.523 216.000 84.225 216.000 84.500 C 216.000 84.775 216.916 85.916 218.036 87.036 C 219.157 88.157 219.762 89.576 219.382 90.191 C 218.989 90.826 219.140 91.032 219.729 90.667 C 220.642 90.103 223.457 95.096 223.488 97.333 C 223.495 97.792 223.838 97.829 224.250 97.417 C 224.663 97.004 225.000 97.192 225.000 97.833 C 225.000 100.151 225.164 100.513 226.578 101.304 C 227.854 102.018 232.450 109.821 231.770 110.118 C 231.622 110.184 231.810 110.193 232.189 110.139 C 232.820 110.049 234.334 113.470 234.451 115.250 C 234.478 115.663 234.950 116.026 235.500 116.059 C 236.050 116.091 236.438 116.766 236.361 117.559 C 236.285 118.351 236.578 119.000 237.012 119.000 C 238.038 119.000 242.436 126.099 242.481 127.826 C 242.500 128.555 242.808 128.859 243.166 128.500 C 243.752 127.915 244.708 129.853 245.139 132.500 C 245.228 133.050 245.884 133.950 246.596 134.500 C 247.308 135.050 248.027 136.138 248.195 136.917 C 248.363 137.696 249.304 139.175 250.286 140.203 C 251.269 141.232 251.762 142.576 251.382 143.191 C 250.998 143.813 251.138 144.032 251.699 143.686 C 252.254 143.343 253.211 144.168 253.826 145.518 C 254.777 147.604 254.613 148.282 252.742 150.025 C 251.531 151.154 249.518 152.334 248.270 152.647 C 247.021 152.960 246.000 153.550 246.000 153.957 C 246.000 154.835 237.883 158.611 236.770 158.250 C 236.347 158.113 236.000 158.438 236.000 158.974 C 236.000 159.841 230.176 163.460 229.882 162.776 C 229.816 162.624 229.807 162.810 229.861 163.189 C 229.945 163.775 227.412 164.958 224.750 165.576 C 224.338 165.672 224.338 165.808 224.750 165.879 C 225.163 165.950 223.987 166.930 222.137 168.058 C 220.288 169.185 218.563 169.896 218.304 169.637 C 218.045 169.378 216.954 170.046 215.880 171.120 C 214.806 172.194 213.493 172.805 212.964 172.477 C 212.434 172.150 212.000 172.314 212.000 172.842 C 212.000 175.009 199.043 180.710 197.538 179.205 C 197.210 178.877 196.312 178.516 195.543 178.403 C 193.543 178.110 182.989 171.678 183.563 171.103 C 183.827 170.839 183.416 170.532 182.650 170.419 C 180.623 170.122 176.000 166.929 176.000 165.826 C 176.000 165.307 175.657 165.094 175.237 165.353 C 174.818 165.612 173.356 165.205 171.987 164.448 C 170.619 163.690 169.950 163.020 170.500 162.959 C 171.050 162.897 170.612 162.682 169.527 162.479 C 168.442 162.277 167.048 161.419 166.429 160.571 C 165.809 159.724 165.020 159.314 164.675 159.659 C 164.329 160.004 163.764 159.549 163.419 158.649 C 163.073 157.748 162.404 157.250 161.932 157.542 C 161.459 157.834 160.157 157.157 159.036 156.036 C 157.916 154.916 156.986 154.338 156.968 154.750 C 156.951 155.163 156.388 154.780 155.718 153.901 C 154.537 152.350 153.887 152.000 152.189 152.000 C 151.742 152.000 150.290 150.988 148.962 149.750 C 147.634 148.513 146.311 147.636 146.023 147.803 C 145.736 147.969 145.355 147.407 145.177 146.553 C 144.999 145.699 145.363 145.000 145.986 145.000 C 146.608 145.000 146.840 144.550 146.500 144.000 C 146.160 143.450 146.385 143.000 147.000 143.000 C 147.615 143.000 147.850 142.566 147.523 142.036 C 147.195 141.507 147.806 140.194 148.880 139.120 C 149.954 138.046 150.581 136.915 150.274 136.607 C 149.966 136.299 150.451 135.764 151.351 135.419 C 152.252 135.073 152.740 134.388 152.435 133.895 C 152.131 133.403 152.359 133.000 152.941 133.000 C 153.523 133.000 153.947 132.663 153.882 132.250 C 153.615 130.562 154.046 129.007 154.750 129.118 C 155.163 129.184 155.359 129.184 155.188 129.118 C 155.016 129.053 156.093 126.763 157.581 124.029 C 159.069 121.295 160.666 119.294 161.132 119.581 C 161.597 119.869 161.742 119.492 161.455 118.744 C 161.168 117.995 161.736 116.454 162.717 115.318 C 163.697 114.182 165.625 110.953 167.000 108.142 C 168.375 105.331 170.138 103.024 170.917 103.016 C 171.696 103.007 172.056 102.723 171.718 102.385 C 171.380 102.046 172.369 99.396 173.917 96.495 C 177.217 90.312 179.948 86.256 180.125 87.277 C 180.255 88.030 180.659 86.772 180.875 84.941 C 180.944 84.359 181.445 84.157 181.989 84.493 C 182.555 84.843 182.723 84.442 182.382 83.552 C 182.054 82.698 182.235 82.000 182.785 82.000 C 183.334 82.000 184.079 80.822 184.440 79.382 C 184.802 77.942 185.385 77.052 185.737 77.404 C 186.089 77.755 186.468 77.416 186.581 76.650 C 186.878 74.623 190.071 70.000 191.174 70.000 C 191.693 70.000 191.882 69.618 191.594 69.151 C 191.305 68.685 191.866 67.447 192.841 66.401 C 194.603 64.509 195.000 63.736 195.000 62.189 C 195.000 61.742 196.009 60.294 197.242 58.970 C 199.184 56.887 199.529 56.794 199.816 58.282 C 199.998 59.227 200.519 60.000 200.975 60.000 M 67.497 244.629 C 82.342 249.505 96.020 261.179 100.322 272.644 C 101.324 275.315 102.403 280.776 102.719 284.780 L 103.293 292.061 104.990 288.280 C 106.943 283.928 112.898 277.658 117.404 275.210 C 119.571 274.033 122.924 273.524 128.578 273.514 C 135.823 273.501 137.158 273.810 141.511 276.501 C 146.840 279.796 152.674 287.109 153.569 291.618 C 154.126 294.420 153.788 294.695 141.423 301.500 C 134.428 305.350 127.589 309.365 126.227 310.421 C 123.875 312.245 123.841 312.411 125.565 313.671 C 128.206 315.602 131.683 315.306 136.205 312.765 C 140.156 310.544 140.192 310.542 141.610 312.515 C 142.395 313.607 144.236 315.783 145.700 317.352 C 148.995 320.882 148.192 322.596 141.804 325.671 C 134.371 329.248 125.393 329.260 118.000 325.703 C 110.330 322.012 102.055 309.587 101.942 301.590 L 101.885 297.500 99.587 302.550 C 98.323 305.328 95.795 309.303 93.969 311.382 C 86.784 319.566 71.949 327.401 61.261 328.657 L 56.000 329.275 56.000 286.304 C 56.000 262.670 56.300 243.033 56.667 242.667 C 57.726 241.608 59.003 241.839 67.497 244.629 M 255.000 158.854 C 255.000 159.324 253.922 160.871 252.605 162.292 C 251.288 163.714 250.452 165.119 250.748 165.415 C 251.044 165.711 250.547 166.237 249.643 166.583 C 248.739 166.930 248.000 167.775 248.000 168.461 C 248.000 169.147 246.896 170.899 245.548 172.354 C 244.199 173.809 243.315 175.000 243.584 175.000 C 243.852 175.000 242.931 176.679 241.536 178.732 C 240.141 180.785 238.966 182.022 238.923 181.482 C 238.881 180.942 238.701 181.257 238.522 182.183 C 238.091 184.414 229.079 197.000 227.912 197.000 C 227.411 197.000 227.109 197.338 227.242 197.750 C 227.511 198.587 216.787 214.849 216.000 214.797 C 215.725 214.778 215.629 214.816 215.786 214.882 C 215.943 214.947 214.931 216.679 213.536 218.732 C 212.141 220.785 210.944 222.135 210.875 221.732 C 210.806 221.329 210.672 221.338 210.576 221.750 C 209.788 225.142 208.617 227.000 207.266 227.000 C 206.386 227.000 205.951 227.284 206.298 227.631 C 206.645 227.979 206.270 229.204 205.465 230.354 C 204.659 231.504 203.966 232.007 203.923 231.473 C 203.881 230.938 203.693 231.310 203.505 232.300 C 203.065 234.610 201.082 237.000 199.605 237.000 C 198.972 237.000 197.565 235.338 196.477 233.306 C 195.390 231.274 193.488 228.594 192.250 227.351 C 191.013 226.108 190.000 224.395 190.000 223.545 C 190.000 222.695 189.550 222.000 189.000 222.000 C 188.450 222.000 188.000 221.573 188.000 221.052 C 188.000 220.530 186.875 218.889 185.500 217.405 C 184.125 215.922 183.000 214.147 183.000 213.461 C 183.000 212.775 182.296 211.944 181.437 211.614 C 180.577 211.284 180.124 210.608 180.431 210.112 C 180.738 209.616 180.316 208.952 179.494 208.636 C 178.672 208.321 178.000 207.422 178.000 206.638 C 178.000 205.855 177.261 204.930 176.357 204.583 C 175.453 204.237 174.944 203.723 175.225 203.441 C 175.507 203.160 174.433 201.534 172.839 199.828 C 171.245 198.121 170.152 196.514 170.410 196.256 C 170.668 195.998 169.968 194.823 168.853 193.644 C 165.409 190.000 163.029 186.305 163.696 185.637 C 164.047 185.287 163.902 185.000 163.375 185.000 C 162.441 185.000 151.838 170.961 151.613 169.426 C 151.551 169.001 150.263 167.417 148.751 165.905 C 146.904 164.057 146.222 162.586 146.671 161.414 C 147.127 160.227 146.967 159.902 146.170 160.395 C 145.526 160.793 145.000 160.641 145.000 160.059 C 145.000 159.477 145.284 159.000 145.632 159.000 C 146.964 159.000 153.000 163.211 153.000 164.141 C 153.000 164.678 153.397 164.873 153.881 164.573 C 154.366 164.274 156.411 165.147 158.426 166.514 C 160.440 167.881 162.545 169.000 163.103 169.000 C 163.661 169.000 163.797 169.520 163.405 170.155 C 162.976 170.847 163.129 171.038 163.785 170.633 C 164.387 170.261 166.369 170.864 168.190 171.974 C 170.010 173.084 171.050 174.029 170.500 174.073 C 169.950 174.117 170.388 174.318 171.473 174.521 C 172.558 174.723 174.020 175.674 174.723 176.635 C 175.425 177.596 176.000 178.086 176.000 177.723 C 176.000 177.361 177.013 177.439 178.250 177.897 C 179.488 178.355 180.500 179.240 180.500 179.865 C 180.500 180.489 180.725 180.934 181.000 180.853 C 182.482 180.418 185.934 182.297 185.360 183.227 C 184.962 183.871 185.158 184.021 185.844 183.597 C 186.478 183.205 187.997 183.585 189.221 184.442 C 190.444 185.299 191.232 186.053 190.973 186.118 C 190.713 186.184 190.830 186.186 191.234 186.124 C 191.638 186.061 193.438 186.906 195.234 188.001 C 197.030 189.097 198.050 190.029 197.500 190.073 C 196.950 190.118 197.920 190.232 199.655 190.327 C 201.390 190.422 202.615 190.185 202.377 189.800 C 201.712 188.724 205.892 186.815 207.175 187.608 C 207.803 187.997 208.036 187.867 207.697 187.318 C 207.094 186.344 218.136 179.495 219.580 179.947 C 219.987 180.075 220.721 179.464 221.210 178.590 C 221.699 177.715 223.004 177.000 224.109 177.000 C 225.388 177.000 225.855 176.575 225.395 175.830 C 224.916 175.056 225.207 174.865 226.253 175.267 C 227.180 175.623 228.073 175.253 228.410 174.373 C 228.727 173.548 229.439 173.153 229.993 173.496 C 230.547 173.838 231.000 173.615 231.000 173.000 C 231.000 172.385 231.450 172.160 232.000 172.500 C 232.550 172.840 233.000 172.635 233.000 172.044 C 233.000 170.760 239.051 166.913 240.075 167.546 C 240.468 167.789 241.059 167.288 241.388 166.431 C 241.717 165.574 242.439 165.153 242.993 165.496 C 243.547 165.838 244.000 165.653 244.000 165.085 C 244.000 164.011 249.540 160.755 250.560 161.230 C 250.879 161.378 251.581 160.713 252.120 159.750 C 253.135 157.937 255.000 157.356 255.000 158.854 M 180.542 276.577 C 182.900 277.960 185.374 279.745 186.038 280.545 C 187.772 282.635 189.000 282.338 189.000 279.829 C 189.000 274.055 196.995 271.905 201.545 276.455 C 204.711 279.620 204.673 283.418 201.443 286.648 C 199.447 288.644 198.129 289.117 195.443 288.804 C 193.549 288.582 192.001 288.649 192.003 288.951 C 192.005 289.253 192.905 294.132 194.004 299.792 C 196.236 311.285 198.368 315.108 204.215 318.102 L 207.930 320.005 205.913 323.423 C 203.547 327.433 202.313 328.512 199.226 329.268 C 195.264 330.239 190.260 328.122 186.710 323.974 C 182.902 319.525 181.593 315.856 179.943 305.000 C 178.771 297.288 175.415 291.000 172.472 291.000 C 171.298 291.000 170.997 294.239 170.773 309.250 L 170.500 327.500 164.000 327.500 L 157.500 327.500 157.500 304.821 C 157.500 283.458 157.620 281.979 159.571 279.321 C 164.483 272.630 172.104 271.633 180.542 276.577 M 335.500 274.224 C 340.323 276.700 344.354 280.569 346.087 284.384 C 347.708 287.954 347.959 291.127 347.978 308.296 L 348.000 328.091 341.250 327.796 L 334.500 327.500 334.000 308.691 C 333.505 290.070 333.475 289.862 331.000 287.965 C 327.757 285.479 323.518 285.821 320.723 288.792 C 318.638 291.008 318.469 292.284 318.000 309.327 L 317.500 327.500 310.873 327.793 C 306.116 328.003 304.138 327.721 303.861 326.793 C 303.649 326.082 303.627 313.688 303.813 299.250 L 304.149 273.000 309.991 273.000 C 313.204 273.000 315.983 273.437 316.167 273.971 C 316.366 274.552 318.110 274.352 320.500 273.476 C 324.676 271.945 331.747 272.298 335.500 274.224 M 266.046 274.250 C 266.072 274.938 266.054 282.250 266.008 290.500 C 265.908 308.117 266.752 311.581 271.644 313.625 C 273.508 314.403 276.147 314.750 277.543 314.400 C 282.211 313.228 283.000 309.772 283.000 290.504 L 283.000 272.909 289.750 273.204 L 296.500 273.500 296.500 293.500 C 296.500 315.605 296.209 316.873 289.751 322.962 C 286.417 326.105 282.166 327.694 276.000 328.103 C 265.984 328.766 258.974 324.479 254.573 315.000 C 252.142 309.764 252.019 308.657 252.010 291.917 C 252.004 282.246 252.300 274.033 252.667 273.667 C 253.942 272.392 265.997 272.917 266.046 274.250 M 241.500 275.764 C 247.155 278.565 247.219 278.833 243.427 283.799 L 239.912 288.402 232.706 288.451 C 226.680 288.492 225.144 288.856 223.326 290.674 C 220.129 293.871 219.000 296.431 219.000 300.484 C 219.000 309.853 226.340 315.380 235.305 312.762 C 239.060 311.665 239.171 311.713 243.605 316.340 C 246.077 318.920 247.885 321.378 247.623 321.802 C 247.361 322.226 244.976 323.681 242.323 325.036 C 236.889 327.812 229.162 328.199 222.576 326.025 C 209.872 321.832 201.464 303.203 206.764 290.992 C 211.791 279.413 223.194 272.332 234.500 273.770 C 236.700 274.049 239.850 274.947 241.500 275.764 "/></g>
<g fill="#000000FD" stroke="#000000FD">
<path d="M 58.000 285.500 C 58.000 319.534 58.257 328.000 59.290 328.000 C 62.762 328.000 73.039 324.563 79.118 321.369 C 95.103 312.969 103.462 298.292 101.514 282.042 C 100.138 270.560 91.696 258.605 79.906 251.443 C 75.482 248.755 61.184 243.191 58.250 243.015 C 58.113 243.007 58.000 262.125 58.000 285.500 M 75.054 262.825 C 84.509 268.832 89.942 277.735 89.978 287.282 C 90.005 294.289 88.372 298.475 83.518 303.848 C 80.183 307.540 72.043 313.000 69.874 313.000 C 69.393 313.000 69.000 301.075 69.000 286.500 C 69.000 271.925 69.362 260.000 69.804 260.000 C 70.247 260.000 72.609 261.271 75.054 262.825 "/></g>
<g fill="#000000FD" stroke="#000000FD">
<path d="M 118.199 276.588 C 105.079 283.126 99.634 298.354 105.836 311.159 C 108.648 316.964 114.530 322.883 119.826 325.237 C 125.576 327.794 134.598 327.744 140.238 325.125 C 147.762 321.630 147.739 321.690 143.417 316.721 L 139.527 312.249 136.029 314.125 C 134.104 315.156 131.488 316.000 130.215 316.000 C 127.646 316.000 122.000 313.378 122.000 312.186 C 122.000 311.394 125.422 309.293 142.750 299.443 C 148.388 296.239 153.000 293.116 153.000 292.504 C 153.000 291.892 151.714 289.364 150.143 286.886 C 142.609 275.006 129.715 270.850 118.199 276.588 M 132.679 286.201 C 134.506 286.861 136.000 287.907 136.000 288.525 C 136.000 289.538 118.281 300.039 115.250 300.823 C 111.495 301.795 116.179 290.630 120.861 287.448 C 124.871 284.723 127.752 284.419 132.679 286.201 "/></g>
<g fill="#000000FD" stroke="#000000FD">
<path d="M 320.500 275.000 C 315.802 277.395 315.000 277.468 315.000 275.500 C 315.000 274.367 313.778 274.000 310.000 274.000 L 305.000 274.000 305.000 300.550 L 305.000 327.100 310.750 326.800 L 316.500 326.500 317.000 308.161 L 317.500 289.822 320.306 287.411 C 324.230 284.039 328.865 284.206 332.351 287.844 L 335.076 290.688 335.108 306.944 C 335.125 315.885 335.364 323.786 335.639 324.502 C 336.241 326.070 342.315 327.352 345.044 326.486 C 346.894 325.899 347.000 324.847 347.000 307.128 L 347.000 288.392 344.151 283.946 C 340.529 278.293 338.083 276.149 333.316 274.449 C 328.005 272.555 325.047 272.682 320.500 275.000 "/></g>
<g fill="#000000FD" stroke="#000000FD">
<path d="M 165.452 275.407 C 159.069 278.185 158.535 280.234 158.177 303.338 C 157.999 314.798 158.054 324.698 158.298 325.338 C 158.586 326.090 160.731 326.379 164.372 326.157 L 170.000 325.815 170.000 307.407 C 170.000 287.883 170.203 287.146 174.576 290.802 C 178.400 294.001 179.956 297.540 181.059 305.547 C 183.129 320.582 188.515 328.000 197.361 328.000 C 200.177 328.000 201.450 327.278 203.924 324.276 L 206.993 320.552 204.247 319.155 C 196.988 315.461 194.700 311.560 193.048 300.065 C 192.382 295.426 190.923 289.686 189.806 287.310 C 185.560 278.277 172.984 272.131 165.452 275.407 "/></g>
<g fill="#000000FD" stroke="#000000FD">
<path d="M 253.044 291.381 C 253.091 309.850 253.770 313.388 258.441 319.511 C 268.207 332.315 289.530 328.559 294.834 313.101 C 296.126 309.334 296.501 275.016 295.250 274.976 C 294.838 274.962 292.166 274.689 289.313 274.369 L 284.126 273.787 283.813 292.482 L 283.500 311.177 280.694 313.589 C 275.358 318.175 268.065 315.495 266.040 308.205 C 265.474 306.167 265.009 297.635 265.006 289.245 L 265.000 273.990 259.000 274.126 L 253.000 274.261 253.044 291.381 "/></g>
<g fill="#000000FD" stroke="#000000FD">
<path d="M 222.242 276.494 C 213.477 280.303 207.547 288.402 206.434 298.083 C 204.565 314.325 219.702 328.987 235.236 325.982 C 240.210 325.020 246.006 322.456 245.991 321.224 C 245.987 320.826 244.357 318.785 242.371 316.689 C 239.907 314.090 238.241 313.088 237.130 313.538 C 227.545 317.416 218.000 311.018 218.000 300.716 C 218.000 291.348 226.931 284.356 235.660 286.891 C 238.588 287.741 239.049 287.522 241.963 283.896 C 243.693 281.744 244.804 279.491 244.432 278.890 C 242.175 275.237 228.524 273.764 222.242 276.494 "/></g>
<g fill="#DD3835FD" stroke="#DD3835FD">
<path d="M 70.879 263.193 C 70.646 265.708 70.221 311.000 70.431 311.000 C 70.548 311.000 72.294 310.197 74.311 309.216 C 90.591 301.297 93.637 282.064 80.681 269.000 C 76.132 264.413 71.045 261.400 70.879 263.193 "/></g>
<g fill="#000000FD" stroke="#000000FD">
<path d="M 191.655 276.829 C 188.191 280.657 191.059 288.000 196.018 288.000 C 198.835 288.000 203.000 284.080 203.000 281.427 C 203.000 276.016 195.238 272.870 191.655 276.829 "/></g>
<g fill="#DD3835FD" stroke="#DD3835FD">
<path d="M 123.228 287.593 C 119.840 289.074 116.010 294.193 116.004 297.250 C 116.002 298.213 116.259 299.000 116.576 299.000 C 117.266 299.000 130.943 291.150 132.818 289.678 C 133.862 288.858 133.654 288.376 131.818 287.357 C 128.919 285.748 127.350 285.791 123.228 287.593 "/></g>
<g fill="#000400FD" stroke="#000400FD">
<path d="M 335.408 325.225 C 335.550 325.926 336.642 326.468 337.833 326.429 C 339.343 326.379 339.419 326.303 338.083 326.179 C 337.029 326.080 335.938 325.539 335.658 324.975 C 335.379 324.411 335.266 324.524 335.408 325.225 "/></g>
</svg>
