<?xml version="1.0" encoding="utf-8"?>
<!DOCTYPE svg PUBLIC "-//W3C//DTD SVG 20010904//EN" "http://www.w3.org/TR/2001/REC-SVG-20010904/DTD/svg10.dtd">
<svg version="1.0" xmlns="http://www.w3.org/2000/svg" width="231pt" height="228pt" viewBox="0 0 231 228" style="" preserveAspectRatio="xMidYMid meet">
<g fill="#40003CFE" stroke="#40003CFE">
<path d="M 101.713 12.020 C 61.629 18.372 29.641 47.103 18.571 86.696 C 16.297 94.831 16.000 97.750 16.000 112.000 C 16.000 126.250 16.297 129.169 18.571 137.304 C 28.709 173.562 55.114 199.836 91.107 209.478 C 99.288 211.670 102.565 211.995 116.507 211.997 C 130.227 212.000 133.728 211.665 141.007 209.654 C 159.493 204.547 172.631 197.127 186.318 184.066 C 199.452 171.531 208.678 155.813 213.530 137.700 C 215.679 129.681 215.995 126.382 215.995 112.000 C 215.995 97.618 215.679 94.319 213.530 86.300 C 201.950 43.076 164.262 12.938 120.000 11.507 C 113.125 11.285 104.896 11.516 101.713 12.020 M 132.500 18.530 C 142.019 20.195 150.397 22.967 158.250 27.052 C 161.413 28.697 164.007 29.696 164.015 29.271 C 164.024 28.847 164.361 28.953 164.765 29.506 C 165.560 30.594 176.663 39.000 177.305 39.000 C 177.783 39.000 189.000 50.168 189.000 50.644 C 189.000 51.005 195.029 59.155 197.770 62.500 C 198.671 63.600 199.337 64.725 199.250 65.000 C 199.163 65.275 200.414 68.300 202.031 71.722 C 203.648 75.145 205.939 81.445 207.121 85.722 C 208.303 90.000 209.484 94.175 209.745 95.000 C 212.570 103.940 211.056 125.679 206.522 141.277 C 205.613 144.404 204.937 147.258 205.020 147.619 C 205.103 147.981 204.746 148.552 204.227 148.888 C 203.478 149.374 200.332 155.710 198.823 159.771 C 198.674 160.172 197.866 161.302 197.026 162.282 C 196.187 163.263 195.674 164.163 195.886 164.282 C 197.372 165.120 171.956 190.618 168.436 191.820 C 167.921 191.995 165.250 193.396 162.500 194.931 C 159.750 196.467 154.800 198.794 151.500 200.102 C 148.200 201.411 145.275 202.710 145.000 202.991 C 144.725 203.271 143.825 203.567 143.000 203.649 C 142.175 203.731 137.450 204.545 132.500 205.458 C 120.390 207.692 108.577 207.516 97.000 204.930 C 91.775 203.763 86.713 202.754 85.750 202.690 C 84.788 202.625 84.000 202.218 84.000 201.786 C 84.000 201.354 83.490 201.000 82.866 201.000 C 82.242 201.000 78.128 199.164 73.723 196.919 C 62.751 191.328 62.009 190.881 58.543 187.755 C 56.870 186.245 55.187 185.007 54.805 185.005 C 53.818 184.998 46.881 177.462 40.563 169.534 C 34.779 162.276 27.821 149.100 25.819 141.613 C 25.140 139.076 24.202 137.000 23.734 137.000 C 23.265 137.000 23.160 136.550 23.500 136.000 C 23.840 135.450 23.771 134.438 23.346 133.751 C 22.922 133.064 22.543 131.827 22.504 131.001 C 22.465 130.176 22.022 125.675 21.519 121.000 C 21.016 116.325 20.647 111.375 20.698 110.000 C 20.895 104.775 21.843 96.440 22.405 95.000 C 22.727 94.175 23.134 92.130 23.310 90.455 C 23.485 88.780 23.878 86.980 24.183 86.455 C 24.488 85.930 25.309 83.700 26.007 81.500 C 27.712 76.130 34.691 62.272 37.631 58.417 C 38.934 56.709 40.000 54.899 40.000 54.396 C 40.000 53.893 40.900 52.919 42.000 52.232 C 43.100 51.545 44.000 50.546 44.000 50.012 C 44.000 47.456 61.925 33.083 70.500 28.764 C 73.800 27.102 76.775 25.312 77.112 24.786 C 77.448 24.260 78.016 23.885 78.374 23.954 C 78.732 24.023 82.643 22.936 87.064 21.540 C 91.486 20.143 95.905 19.000 96.885 19.000 C 97.865 19.000 98.978 18.689 99.358 18.309 C 99.738 17.929 104.650 17.433 110.274 17.207 C 115.898 16.981 120.701 16.603 120.948 16.367 C 121.194 16.131 122.094 16.206 122.948 16.534 C 123.801 16.863 128.100 17.761 132.500 18.530 "/></g>
<g fill="#FE8040FE" stroke="#FE8040FE">
<path d="M 105.500 18.038 C 81.897 21.624 62.738 31.121 48.169 46.459 C 33.315 62.096 25.674 78.054 22.422 100.232 C 21.068 109.463 20.999 112.808 21.987 121.306 C 27.287 166.891 61.131 200.716 106.749 206.019 C 114.452 206.915 119.032 206.924 125.703 206.055 C 134.395 204.924 148.561 201.486 150.500 200.037 C 151.050 199.626 153.047 198.769 154.937 198.132 C 170.772 192.796 194.283 169.497 202.006 151.489 C 207.345 139.039 210.992 123.019 210.995 112.000 C 210.998 105.699 208.926 93.059 206.474 84.414 C 204.544 77.608 197.062 62.140 193.214 57.000 C 181.790 41.741 164.343 28.833 147.004 22.812 C 134.234 18.377 116.612 16.350 105.500 18.038 M 112.453 40.161 L 115.000 41.321 115.033 64.911 C 115.129 133.035 115.047 136.283 113.127 140.000 C 112.096 141.996 109.243 144.790 106.491 146.500 L 101.662 149.500 80.686 149.839 C 56.542 150.230 52.885 149.595 47.137 144.017 C 42.270 139.294 42.025 137.742 42.011 111.616 C 42.001 91.805 42.969 83.000 45.158 83.000 C 45.621 83.000 46.000 82.331 46.000 81.514 C 46.000 80.697 47.878 78.784 50.173 77.264 C 54.334 74.508 54.405 74.499 75.923 74.000 L 97.500 73.500 97.696 58.111 C 97.804 49.647 98.114 42.145 98.385 41.439 C 99.267 39.141 108.394 38.311 112.453 40.161 M 184.261 76.003 C 186.592 77.104 189.513 79.494 190.750 81.314 C 192.947 84.547 193.000 85.260 193.000 111.908 C 193.000 137.469 192.875 139.366 191.026 141.964 C 186.276 148.634 183.796 149.196 156.785 149.720 L 138.069 150.083 137.785 160.292 L 137.500 170.500 130.521 170.801 C 118.174 171.333 119.425 176.438 120.000 127.877 C 120.387 95.243 120.785 85.570 121.756 85.247 C 122.447 85.017 122.794 84.477 122.528 84.045 C 121.978 83.155 128.963 75.630 129.677 76.344 C 129.933 76.599 131.347 76.179 132.821 75.410 C 134.880 74.336 140.650 74.011 157.761 74.006 C 177.961 74.001 180.414 74.185 184.261 76.003 "/></g>
<g fill="#FE8040FE" stroke="#FE8040FE">
<path d="M 139.200 93.200 C 137.729 94.671 137.529 127.705 138.977 130.000 C 139.742 131.213 143.103 131.561 156.533 131.818 C 179.456 132.257 178.000 133.569 178.000 112.477 C 178.000 90.623 179.399 92.000 157.200 92.000 C 145.467 92.000 140.038 92.362 139.200 93.200 "/></g>
<g fill="#FE8040FE" stroke="#FE8040FE">
<path d="M 59.975 94.565 C 59.439 95.976 59.000 104.231 59.000 112.910 C 59.000 133.306 57.796 132.077 77.874 132.172 C 90.292 132.230 93.427 131.950 95.490 130.598 L 98.000 128.954 98.000 112.411 C 98.000 102.920 97.559 95.044 96.965 93.934 C 96.002 92.135 94.708 92.000 78.440 92.000 L 60.950 92.000 59.975 94.565 "/></g>
<g fill="#DA6C3AFE" stroke="#DA6C3AFE">
<path d="M 112.412 40.858 C 113.206 42.142 113.244 136.905 112.450 136.157 C 112.066 135.796 112.081 136.569 112.483 137.875 C 112.960 139.424 112.853 140.027 112.176 139.609 C 111.605 139.256 110.856 139.425 110.510 139.984 C 110.165 140.543 110.595 141.000 111.466 141.000 C 112.337 141.000 113.488 139.846 114.025 138.435 C 114.609 136.899 115.000 116.873 115.000 88.542 C 115.000 46.691 114.820 41.145 113.448 40.618 C 112.594 40.291 112.128 40.399 112.412 40.858 "/></g>
<g fill="#DA6C3AFE" stroke="#DA6C3AFE">
<path d="M 191.336 137.288 C 191.728 138.399 191.407 139.290 190.489 139.643 C 189.676 139.954 189.223 140.552 189.482 140.971 C 189.953 141.732 186.141 145.722 185.395 145.250 C 185.178 145.113 184.438 145.007 183.750 145.015 C 182.901 145.026 182.981 145.374 184.000 146.102 C 185.205 146.963 185.058 147.077 183.250 146.680 C 182.013 146.409 181.000 146.489 181.000 146.858 C 181.000 147.228 171.581 147.462 160.069 147.380 L 139.138 147.230 137.592 150.365 C 136.741 152.089 136.002 153.050 135.948 152.500 C 135.894 151.950 135.630 154.244 135.360 157.597 C 135.026 161.746 135.344 164.782 136.353 167.097 C 137.795 170.404 137.839 170.211 137.918 160.311 L 138.000 150.121 156.750 149.683 C 180.261 149.133 183.075 148.795 186.917 146.059 C 191.019 143.138 193.646 138.208 191.938 136.635 C 190.988 135.760 190.850 135.909 191.336 137.288 "/></g>
<g fill="#DA6C3AFE" stroke="#DA6C3AFE">
<path d="M 139.584 91.137 C 139.801 91.487 139.308 92.329 138.489 93.009 C 137.670 93.689 136.947 94.077 136.882 93.872 C 136.816 93.668 136.816 93.838 136.882 94.250 C 136.947 94.663 136.529 95.000 135.953 95.000 C 134.844 95.000 135.104 125.703 136.246 129.500 C 136.576 130.600 136.896 131.050 136.957 130.500 C 137.017 129.950 137.911 130.513 138.944 131.751 C 140.462 133.570 141.270 133.822 143.161 133.064 C 145.453 132.146 145.456 132.125 143.321 132.063 C 138.461 131.922 138.000 130.144 138.000 111.551 C 138.000 97.707 138.288 94.006 139.440 93.050 C 140.457 92.206 146.260 91.899 159.190 92.006 C 169.261 92.090 177.275 92.069 177.000 91.961 C 176.725 91.852 176.163 91.816 175.750 91.882 C 175.338 91.947 175.000 91.663 175.000 91.250 C 175.000 90.838 166.943 90.500 157.095 90.500 C 147.248 90.500 139.368 90.787 139.584 91.137 "/></g>
<g fill="#DA6C3AFE" stroke="#DA6C3AFE">
<path d="M 43.000 138.596 C 43.000 139.797 47.236 145.098 47.769 144.564 C 48.073 144.261 48.904 144.846 49.618 145.864 C 52.081 149.381 58.474 150.199 80.605 149.830 C 98.504 149.531 101.983 149.219 104.865 147.655 C 107.339 146.313 107.935 145.535 107.115 144.715 C 106.295 143.895 106.000 143.933 106.000 144.859 C 106.000 145.551 105.550 145.840 105.000 145.500 C 104.450 145.160 104.000 145.385 104.000 146.000 C 104.000 146.615 103.550 146.840 103.000 146.500 C 102.450 146.160 102.000 146.329 102.000 146.875 C 102.000 147.507 93.267 147.844 78.000 147.801 C 63.988 147.762 54.000 147.349 54.000 146.808 C 54.000 146.299 53.550 146.160 53.000 146.500 C 52.450 146.840 52.000 146.566 52.000 145.892 C 52.000 145.218 51.755 144.912 51.455 145.212 C 50.779 145.888 44.471 139.783 44.777 138.750 C 44.900 138.338 44.550 138.000 44.000 138.000 C 43.450 138.000 43.000 138.268 43.000 138.596 "/></g>
<g fill="#DA6C3AFE" stroke="#DA6C3AFE">
<path d="M 60.000 91.750 C 60.000 92.438 59.532 92.888 58.959 92.750 C 57.810 92.474 57.370 130.383 58.507 131.733 C 58.862 132.155 58.897 132.050 58.585 131.500 C 57.353 129.332 58.102 128.782 59.976 130.479 C 61.063 131.462 61.716 132.651 61.426 133.120 C 61.136 133.589 61.934 133.558 63.199 133.050 C 64.663 132.463 64.920 132.104 63.905 132.063 C 63.028 132.029 61.565 131.177 60.655 130.171 C 59.264 128.634 59.000 125.855 59.000 112.736 C 59.000 104.153 59.439 95.976 59.975 94.565 L 60.950 92.000 78.426 92.000 C 93.532 92.000 96.024 92.221 96.812 93.628 C 97.435 94.742 97.944 94.900 98.421 94.128 C 99.297 92.711 98.179 90.771 96.931 91.543 C 96.419 91.859 96.000 91.754 96.000 91.309 C 96.000 90.864 87.900 90.500 78.000 90.500 C 64.267 90.500 60.000 90.796 60.000 91.750 "/></g>
<g fill="#D68E6AFE" stroke="#D68E6AFE">
<path d="M 98.443 41.288 C 98.171 41.997 98.084 49.985 98.251 59.038 L 98.553 75.500 98.777 58.333 C 98.941 45.709 99.331 41.033 100.250 40.662 C 101.229 40.267 101.222 40.141 100.219 40.079 C 99.514 40.036 98.715 40.580 98.443 41.288 "/></g>
<g fill="#DA6C3AFE" stroke="#DA6C3AFE">
<path d="M 178.250 74.689 C 179.213 74.941 180.000 75.550 180.000 76.042 C 180.000 76.534 180.675 76.678 181.500 76.362 C 182.349 76.036 183.000 76.338 183.000 77.060 C 183.000 77.760 183.240 78.093 183.533 77.800 C 184.359 76.975 191.498 84.308 191.516 86.000 C 191.529 87.176 191.711 87.218 192.358 86.196 C 194.439 82.913 183.752 73.754 178.261 74.116 C 176.593 74.226 176.593 74.256 178.250 74.689 "/></g>
<g fill="#DA6C3AFE" stroke="#DA6C3AFE">
<path d="M 95.559 130.532 C 94.491 131.339 92.466 132.039 91.059 132.086 C 88.576 132.169 88.588 132.198 91.460 133.056 C 93.536 133.675 94.651 133.575 95.194 132.720 C 95.621 132.049 95.976 131.893 95.985 132.372 C 96.005 133.508 99.000 131.030 99.000 129.878 C 99.000 128.616 97.788 128.846 95.559 130.532 "/></g>
<g fill="#DA6C3AFE" stroke="#DA6C3AFE">
<path d="M 50.364 77.494 C 50.048 78.316 49.439 78.771 49.009 78.505 C 48.578 78.239 47.671 78.692 46.991 79.511 C 46.311 80.330 46.148 81.014 46.628 81.032 C 47.107 81.049 46.626 81.724 45.559 82.532 C 44.491 83.339 44.107 84.000 44.705 84.000 C 45.303 84.000 47.147 82.458 48.802 80.572 C 50.457 78.687 52.079 77.412 52.406 77.739 C 52.733 78.066 53.000 77.808 53.000 77.167 C 53.000 75.486 51.041 75.729 50.364 77.494 "/></g>
<g fill="#DA6C3AFE" stroke="#DA6C3AFE">
<path d="M 173.088 131.596 C 170.124 132.560 169.975 132.760 171.858 133.253 C 173.036 133.561 174.000 133.419 174.000 132.938 C 174.000 132.457 174.640 132.308 175.423 132.609 C 176.250 132.926 176.765 132.599 176.653 131.827 C 176.500 130.774 175.764 130.726 173.088 131.596 "/></g>
<g fill="#DA6C3AFE" stroke="#DA6C3AFE">
<path d="M 183.500 178.449 L 179.500 182.559 183.500 178.449 L 187.500 174.338 183.500 178.449 "/></g>
<g fill="#DA6C3AFE" stroke="#DA6C3AFE">
<path d="M 183.500 45.500 L 188.000 50.000 183.500 45.500 L 179.000 41.000 183.500 45.500 "/></g>
<g fill="#DA6C3AFE" stroke="#DA6C3AFE">
<path d="M 49.000 179.000 L 53.000 183.000 49.000 179.000 L 45.000 175.000 49.000 179.000 "/></g>
<g fill="#DA6C3AFE" stroke="#DA6C3AFE">
<path d="M 126.839 78.091 C 125.925 78.591 125.281 79.707 125.408 80.571 C 125.596 81.852 125.840 81.898 126.737 80.817 C 128.629 78.537 128.683 77.082 126.839 78.091 "/></g>
<g fill="#DA6C3AFE" stroke="#DA6C3AFE">
<path d="M 49.500 44.435 L 46.500 47.564 49.500 44.435 L 52.500 41.305 49.500 44.435 "/></g>
<g fill="#DA6C3AFE" stroke="#DA6C3AFE">
<path d="M 132.500 76.000 C 132.840 76.550 133.541 77.000 134.059 77.000 C 134.577 77.000 135.000 76.550 135.000 76.000 C 135.000 75.450 134.298 75.000 133.441 75.000 C 132.584 75.000 132.160 75.450 132.500 76.000 "/></g>
<g fill="#D68E6AFE" stroke="#D68E6AFE">
<path d="M 191.408 85.500 C 192.239 87.150 192.938 88.024 192.960 87.441 C 192.982 86.859 192.301 85.509 191.448 84.441 C 190.038 82.679 190.035 82.777 191.408 85.500 "/></g>
<g fill="#DA6C3AFE" stroke="#DA6C3AFE">
<path d="M 121.000 85.882 C 121.000 86.432 121.450 87.160 122.000 87.500 C 122.550 87.840 123.000 87.668 123.000 87.118 C 123.000 86.568 122.550 85.840 122.000 85.500 C 121.450 85.160 121.000 85.332 121.000 85.882 "/></g>
<g fill="#DA6C3AFE" stroke="#DA6C3AFE">
<path d="M 55.143 74.923 C 54.249 75.468 54.147 75.973 54.843 76.403 C 55.424 76.762 56.035 76.390 56.200 75.576 C 56.406 74.562 56.073 74.357 55.143 74.923 "/></g>
<g fill="#D68E6AFE" stroke="#D68E6AFE">
<path d="M 188.000 142.888 L 186.500 144.563 188.000 142.888 L 189.500 141.212 188.000 142.888 "/></g>
<g fill="#D68E6AFE" stroke="#D68E6AFE">
<path d="M 109.000 142.888 L 107.500 144.563 109.000 142.888 L 110.500 141.212 109.000 142.888 "/></g>
<g fill="#D68E6AFE" stroke="#D68E6AFE">
<path d="M 48.000 79.888 L 46.500 81.563 48.000 79.888 L 49.500 78.212 48.000 79.888 "/></g>
<g fill="#FC8040FE" stroke="#FC8040FE">
<path d="M 124.000 81.888 L 122.500 83.563 124.000 81.888 L 125.500 80.212 124.000 81.888 "/></g>
<g fill="#D06434FE" stroke="#D06434FE">
<path d="M 110.000 142.888 L 108.500 144.563 110.000 142.888 L 111.500 141.212 110.000 142.888 "/></g>
<g fill="#DA6C3AFE" stroke="#DA6C3AFE">
<path d="M 41.500 170.500 L 43.000 172.000 41.500 170.500 L 40.000 169.000 41.500 170.500 "/></g>
<g fill="#DA6C3AFE" stroke="#DA6C3AFE">
<path d="M 110.378 143.378 L 109.500 144.256 110.378 143.378 L 111.256 142.500 110.378 143.378 "/></g>
<g fill="#DA6C3AFE" stroke="#DA6C3AFE">
<path d="M 174.500 37.500 L 176.000 39.000 174.500 37.500 L 173.000 36.000 174.500 37.500 "/></g>
<g fill="#D68E6AFE" stroke="#D68E6AFE">
<path d="M 47.500 143.500 L 49.000 145.000 47.500 143.500 L 46.000 142.000 47.500 143.500 "/></g>
<g fill="#D68E6AFE" stroke="#D68E6AFE">
<path d="M 137.422 131.874 C 137.805 132.493 138.654 132.986 139.309 132.970 C 139.964 132.953 139.651 132.446 138.613 131.843 C 137.224 131.037 136.910 131.045 137.422 131.874 "/></g>
<g fill="#D68E6AFE" stroke="#D68E6AFE">
<path d="M 128.422 78.126 C 127.910 78.955 128.224 78.963 129.613 78.157 C 130.651 77.554 130.964 77.047 130.309 77.030 C 129.654 77.014 128.805 77.507 128.422 78.126 "/></g>
</svg>
