<?xml version="1.0" encoding="UTF-8"?>
<!DOCTYPE svg PUBLIC "-//W3C//DTD SVG 1.1//EN" "http://www.w3.org/Graphics/SVG/1.1/DTD/svg11.dtd">
<svg xmlns="http://www.w3.org/2000/svg" version="1.1" width="1500px" height="1500px" style="shape-rendering:geometricPrecision; text-rendering:geometricPrecision; image-rendering:optimizeQuality; fill-rule:evenodd; clip-rule:evenodd" xmlns:xlink="http://www.w3.org/1999/xlink">
<g><path style="opacity:1" fill="#10153a" d="M 1037.5,128.5 C 963.833,202.167 889.833,275.501 815.5,348.5C 812.86,347.18 810.193,345.847 807.5,344.5C 742.606,303.026 671.606,284.859 594.5,290C 585.953,290.702 577.62,292.368 569.5,295C 607.074,316.614 642.741,340.947 676.5,368C 686.037,377.04 695.704,385.873 705.5,394.5C 717.77,407.437 728.104,421.77 736.5,437.5C 737.153,438.807 737.82,440.14 738.5,441.5C 738,441.833 737.5,442.167 737,442.5C 714.842,432.835 691.676,427.835 667.5,427.5C 658.161,427.334 648.827,427.5 639.5,428C 638.062,428.219 636.729,428.719 635.5,429.5C 652.414,446.4 667.414,464.733 680.5,484.5C 679.761,484.369 679.094,484.536 678.5,485C 494.272,667.728 310.272,850.561 126.5,1033.5C 73.5802,915.986 54.9136,793.32 70.5,665.5C 270.299,467.535 469.965,269.368 669.5,71C 668.207,70.51 666.873,70.3433 665.5,70.5C 794.999,54.7138 918.999,74.0472 1037.5,128.5 Z"/></g>
<g><path style="opacity:1" fill="#12173d" d="M 665.5,70.5 C 666.873,70.3433 668.207,70.51 669.5,71C 469.965,269.368 270.299,467.535 70.5,665.5C 73.3726,636.583 78.7059,608.249 86.5,580.5C 86.3505,581.552 86.5172,582.552 87,583.5C 254.5,417.333 422,251.167 589.5,85C 589.272,84.6012 588.938,84.4346 588.5,84.5C 613.674,77.8006 639.341,73.134 665.5,70.5 Z"/></g>
<g><path style="opacity:1" fill="#13193e" d="M 588.5,84.5 C 588.938,84.4346 589.272,84.6012 589.5,85C 422,251.167 254.5,417.333 87,583.5C 86.5172,582.552 86.3505,581.552 86.5,580.5C 128.853,419.189 217.186,289.689 351.5,192C 423.409,141.054 502.409,105.221 588.5,84.5 Z"/></g>
<g><path style="opacity:1" fill="#0d1237" d="M 1037.5,128.5 C 1065.46,141.139 1092.13,155.806 1117.5,172.5C 1053.14,237.527 988.473,302.194 923.5,366.5C 904.729,349.441 883.396,336.441 859.5,327.5C 859.44,326.957 859.107,326.624 858.5,326.5C 857.189,330.984 857.189,335.317 858.5,339.5C 858.301,351.516 858.634,363.516 859.5,375.5C 859.333,377.5 859.167,379.5 859,381.5C 858.292,380.619 857.458,379.953 856.5,379.5C 843.371,368.438 829.705,358.104 815.5,348.5C 889.833,275.501 963.833,202.167 1037.5,128.5 Z"/></g>
<g><path style="opacity:1" fill="#090e33" d="M 1117.5,172.5 C 1204.86,228.027 1276.03,299.693 1331,387.5C 1337.36,397.564 1343.2,407.897 1348.5,418.5C 1099.86,664.472 851.528,910.806 603.5,1157.5C 598.497,1118.2 602.497,1079.86 615.5,1042.5C 627.386,1014.94 644.053,990.604 665.5,969.5C 688.762,948.552 713.429,929.552 739.5,912.5C 773.719,891.896 806.719,869.563 838.5,845.5C 858.726,830.942 877.059,814.275 893.5,795.5C 906.722,782.953 918.055,768.953 927.5,753.5C 941.399,733.549 953.066,712.215 962.5,689.5C 969.964,671.234 976.297,652.567 981.5,633.5C 983.814,625.577 985.814,617.577 987.5,609.5C 996.222,575.235 998.555,540.569 994.5,505.5C 988.805,451.444 966.139,406.11 926.5,369.5C 925.167,368.833 924.167,367.833 923.5,366.5C 988.473,302.194 1053.14,237.527 1117.5,172.5 Z"/></g>
<g><path style="opacity:1" fill="#f7f6f6" d="M 807.5,344.5 C 807.631,345.376 807.298,346.043 806.5,346.5C 772.933,362.784 739.266,378.784 705.5,394.5C 695.704,385.873 686.037,377.04 676.5,368C 642.741,340.947 607.074,316.614 569.5,295C 577.62,292.368 585.953,290.702 594.5,290C 671.606,284.859 742.606,303.026 807.5,344.5 Z"/></g>
<g><path style="opacity:1" fill="#8b7e72" d="M 859.5,327.5 C 858.517,331.298 858.183,335.298 858.5,339.5C 857.189,335.317 857.189,330.984 858.5,326.5C 859.107,326.624 859.44,326.957 859.5,327.5 Z"/></g>
<g><path style="opacity:1" fill="#efefef" d="M 807.5,344.5 C 810.193,345.847 812.86,347.18 815.5,348.5C 829.705,358.104 843.371,368.438 856.5,379.5C 817.045,399.774 777.045,419.107 736.5,437.5C 728.104,421.77 717.77,407.437 705.5,394.5C 739.266,378.784 772.933,362.784 806.5,346.5C 807.298,346.043 807.631,345.376 807.5,344.5 Z"/></g>
<g><path style="opacity:1" fill="#ebeaea" d="M 859.5,327.5 C 883.396,336.441 904.729,349.441 923.5,366.5C 924.167,367.833 925.167,368.833 926.5,369.5C 929.747,376.57 932.414,383.904 934.5,391.5C 934.714,393.144 934.38,394.644 933.5,396C 865.288,428.939 796.955,461.606 728.5,494C 727.483,495.049 727.316,496.216 728,497.5C 735.862,511.879 742.029,526.879 746.5,542.5C 750.022,555.897 751.689,569.564 751.5,583.5C 743.455,593.208 734.121,601.542 723.5,608.5C 722.833,611.977 722.166,615.311 721.5,618.5C 721.666,608.161 721.5,597.828 721,587.5C 720.75,581.192 719.583,575.192 717.5,569.5C 715.796,558.884 712.963,548.551 709,538.5C 703.685,525.872 697.852,513.539 691.5,501.5C 698.918,498.627 706.251,495.46 713.5,492C 716.533,490.822 719.199,489.156 721.5,487C 715.121,476.617 707.955,466.784 700,457.5C 689.461,447.153 678.628,437.153 667.5,427.5C 691.676,427.835 714.842,432.835 737,442.5C 737.5,442.167 738,441.833 738.5,441.5C 737.82,440.14 737.153,438.807 736.5,437.5C 777.045,419.107 817.045,399.774 856.5,379.5C 857.458,379.953 858.292,380.619 859,381.5C 859.167,379.5 859.333,377.5 859.5,375.5C 858.634,363.516 858.301,351.516 858.5,339.5C 858.183,335.298 858.517,331.298 859.5,327.5 Z"/></g>
<g><path style="opacity:1" fill="#e3e3e3" d="M 934.5,391.5 C 940.682,408.393 945.682,425.726 949.5,443.5C 887.988,474.088 825.988,503.921 763.5,533C 757.448,535.687 751.781,538.854 746.5,542.5C 742.029,526.879 735.862,511.879 728,497.5C 727.316,496.216 727.483,495.049 728.5,494C 796.955,461.606 865.288,428.939 933.5,396C 934.38,394.644 934.714,393.144 934.5,391.5 Z"/></g>
<g><path style="opacity:1" fill="#f5f5f4" d="M 667.5,427.5 C 678.628,437.153 689.461,447.153 700,457.5C 707.955,466.784 715.121,476.617 721.5,487C 719.199,489.156 716.533,490.822 713.5,492C 706.251,495.46 698.918,498.627 691.5,501.5C 687.598,496.04 683.931,490.373 680.5,484.5C 667.414,464.733 652.414,446.4 635.5,429.5C 636.729,428.719 638.062,428.219 639.5,428C 648.827,427.5 658.161,427.334 667.5,427.5 Z"/></g>
<g><path style="opacity:1" fill="#070c31" d="M 1348.5,418.5 C 1355.93,431.023 1362.6,444.023 1368.5,457.5C 1367.76,457.369 1367.09,457.536 1366.5,458C 1115.27,708.396 863.604,958.229 611.5,1207.5C 607.539,1191.18 604.872,1174.52 603.5,1157.5C 851.528,910.806 1099.86,664.472 1348.5,418.5 Z"/></g>
<g><path style="opacity:1" fill="#a0a1bc" d="M 926.5,369.5 C 966.139,406.11 988.805,451.444 994.5,505.5C 994.752,508.32 994.252,510.986 993,513.5C 992.026,511.122 991.359,511.456 991,514.5C 989.836,514.835 988.503,514.835 987,514.5C 986.16,517.464 985.16,517.797 984,515.5C 983.363,517.303 982.197,518.636 980.5,519.5C 979.808,518.975 979.308,518.308 979,517.5C 978.16,520.464 977.16,520.797 976,518.5C 975.333,519.833 974.667,521.167 974,522.5C 973.667,521.5 973.333,520.5 973,519.5C 972.727,521.329 971.893,522.829 970.5,524C 969.256,524.456 968.423,523.956 968,522.5C 967.368,524.965 965.868,526.631 963.5,527.5C 962.833,535.99 962.167,544.324 961.5,552.5C 962.663,515.963 958.663,479.629 949.5,443.5C 945.682,425.726 940.682,408.393 934.5,391.5C 932.414,383.904 929.747,376.57 926.5,369.5 Z"/></g>
<g><path style="opacity:1" fill="#dcdcdc" d="M 949.5,443.5 C 958.663,479.629 962.663,515.963 961.5,552.5C 961.5,553.833 961.5,555.167 961.5,556.5C 943.696,529.858 921.862,506.858 896,487.5C 894.172,497.459 892.672,507.459 891.5,517.5C 860.374,531.896 829.374,546.563 798.5,561.5C 792.881,555.215 786.881,549.215 780.5,543.5C 772.142,557.562 762.808,570.895 752.5,583.5C 752.167,583.5 751.833,583.5 751.5,583.5C 751.689,569.564 750.022,555.897 746.5,542.5C 751.781,538.854 757.448,535.687 763.5,533C 825.988,503.921 887.988,474.088 949.5,443.5 Z"/></g>
<g><path style="opacity:1" fill="#04092e" d="M 1368.5,457.5 C 1419.85,566.9 1441.01,681.9 1432,802.5C 1430.99,818.078 1429.16,833.411 1426.5,848.5C 1426.66,847.127 1426.49,845.793 1426,844.5C 1418.14,852.698 1409.97,860.531 1401.5,868C 1218.83,1049.33 1036.17,1230.67 853.5,1412C 848.5,1417 843.5,1422 838.5,1427C 839.094,1427.46 839.761,1427.63 840.5,1427.5C 705.221,1445.36 575.888,1425.03 452.5,1366.5C 504.527,1313.81 556.86,1261.47 609.5,1209.5C 611.203,1210.66 611.869,1209.99 611.5,1207.5C 863.604,958.229 1115.27,708.396 1366.5,458C 1367.09,457.536 1367.76,457.369 1368.5,457.5 Z"/></g>
<g><path style="opacity:1" fill="#d7d7d6" d="M 891.5,517.5 C 889.618,530.027 886.951,542.36 883.5,554.5C 882.415,558.939 881.082,563.272 879.5,567.5C 858.5,577.5 837.5,587.5 816.5,597.5C 812.068,584.637 806.068,572.637 798.5,561.5C 829.374,546.563 860.374,531.896 891.5,517.5 Z"/></g>
<g><path style="opacity:1" fill="#fca12e" d="M 961.5,556.5 C 961.5,556.833 961.5,557.167 961.5,557.5C 935.502,556.437 909.502,555.437 883.5,554.5C 886.951,542.36 889.618,530.027 891.5,517.5C 892.672,507.459 894.172,497.459 896,487.5C 921.862,506.858 943.696,529.858 961.5,556.5 Z"/></g>
<g><path style="opacity:1" fill="#0d1237" d="M 680.5,484.5 C 683.931,490.373 687.598,496.04 691.5,501.5C 697.852,513.539 703.685,525.872 709,538.5C 712.963,548.551 715.796,558.884 717.5,569.5C 534.973,750.939 352.64,932.605 170.5,1114.5C 153.548,1088.94 138.881,1061.94 126.5,1033.5C 310.272,850.561 494.272,667.728 678.5,485C 679.094,484.536 679.761,484.369 680.5,484.5 Z"/></g>
<g><path style="opacity:1" fill="#9797b0" d="M 994.5,505.5 C 998.555,540.569 996.222,575.235 987.5,609.5C 980.651,591.466 971.984,574.466 961.5,558.5C 961.5,558.167 961.5,557.833 961.5,557.5C 961.5,557.167 961.5,556.833 961.5,556.5C 961.5,555.167 961.5,553.833 961.5,552.5C 962.167,544.324 962.833,535.99 963.5,527.5C 965.868,526.631 967.368,524.965 968,522.5C 968.423,523.956 969.256,524.456 970.5,524C 971.893,522.829 972.727,521.329 973,519.5C 973.333,520.5 973.667,521.5 974,522.5C 974.667,521.167 975.333,519.833 976,518.5C 977.16,520.797 978.16,520.464 979,517.5C 979.308,518.308 979.808,518.975 980.5,519.5C 982.197,518.636 983.363,517.303 984,515.5C 985.16,517.797 986.16,517.464 987,514.5C 988.503,514.835 989.836,514.835 991,514.5C 991.359,511.456 992.026,511.122 993,513.5C 994.252,510.986 994.752,508.32 994.5,505.5 Z"/></g>
<g><path style="opacity:1" fill="#fc9a30" d="M 883.5,554.5 C 909.502,555.437 935.502,556.437 961.5,557.5C 961.5,557.833 961.5,558.167 961.5,558.5C 961.065,570.311 959.732,581.977 957.5,593.5C 929.163,592.23 900.829,590.897 872.5,589.5C 875.23,582.311 877.563,574.977 879.5,567.5C 881.082,563.272 882.415,558.939 883.5,554.5 Z"/></g>
<g><path style="opacity:1" fill="#b86d2b" d="M 961.5,558.5 C 971.984,574.466 980.651,591.466 987.5,609.5C 985.814,617.577 983.814,625.577 981.5,633.5C 970.841,632.957 960.175,632.623 949.5,632.5C 952.934,619.666 955.6,606.666 957.5,593.5C 959.732,581.977 961.065,570.311 961.5,558.5 Z"/></g>
<g><path style="opacity:1" fill="#d1d0cf" d="M 879.5,567.5 C 877.563,574.977 875.23,582.311 872.5,589.5C 865.418,606.998 856.751,623.665 846.5,639.5C 839.528,648.139 831.862,656.139 823.5,663.5C 823.234,655.226 823.234,646.893 823.5,638.5C 822.801,625.941 820.801,613.608 817.5,601.5C 817.167,600.167 816.833,598.833 816.5,597.5C 837.5,587.5 858.5,577.5 879.5,567.5 Z"/></g>
<g><path style="opacity:0.999" fill="#0a1034" d="M 717.5,569.5 C 719.583,575.192 720.75,581.192 721,587.5C 721.5,597.828 721.666,608.161 721.5,618.5C 721.5,619.5 721.5,620.5 721.5,621.5C 719.387,634.835 716.053,647.835 711.5,660.5C 705.701,672.639 699.035,684.306 691.5,695.5C 687.352,700.429 683.185,705.429 679,710.5C 667.272,722.396 655.438,734.063 643.5,745.5C 631.468,756.532 620.134,768.198 609.5,780.5C 601.119,788.547 593.452,797.214 586.5,806.5C 572.052,822.722 559.052,840.055 547.5,858.5C 539.489,870.515 532.489,883.182 526.5,896.5C 521.205,907.04 516.871,918.04 513.5,929.5C 509.668,940.11 507.002,951.11 505.5,962.5C 502.505,980.033 501.839,997.699 503.5,1015.5C 505.934,1038.91 511.934,1061.24 521.5,1082.5C 536.541,1118.27 556.874,1150.6 582.5,1179.5C 581.761,1179.37 581.094,1179.54 580.5,1180C 524.89,1235.44 469.557,1290.94 414.5,1346.5C 313.504,1289.97 232.171,1212.64 170.5,1114.5C 352.64,932.605 534.973,750.939 717.5,569.5 Z"/></g>
<g><path style="opacity:1" fill="#fdbf48" d="M 751.5,583.5 C 751.833,583.5 752.167,583.5 752.5,583.5C 752.369,589.082 752.369,594.416 752.5,599.5C 751.562,607.132 750.562,614.799 749.5,622.5C 743.44,621.953 738.107,621.953 733.5,622.5C 732.522,622.023 731.689,621.357 731,620.5C 727.943,621.451 724.777,621.784 721.5,621.5C 721.5,620.5 721.5,619.5 721.5,618.5C 722.166,615.311 722.833,611.977 723.5,608.5C 734.121,601.542 743.455,593.208 751.5,583.5 Z"/></g>
<g><path style="opacity:1" fill="#fc9732" d="M 798.5,561.5 C 806.068,572.637 812.068,584.637 816.5,597.5C 816.833,598.833 817.167,600.167 817.5,601.5C 795.912,601.148 774.412,600.148 753,598.5C 752.601,598.728 752.435,599.062 752.5,599.5C 752.369,594.416 752.369,589.082 752.5,583.5C 762.808,570.895 772.142,557.562 780.5,543.5C 786.881,549.215 792.881,555.215 798.5,561.5 Z"/></g>
<g><path style="opacity:1" fill="#fc9233" d="M 817.5,601.5 C 820.801,613.608 822.801,625.941 823.5,638.5C 798.174,637.106 772.84,635.773 747.5,634.5C 747.782,630.426 748.448,626.426 749.5,622.5C 750.562,614.799 751.562,607.132 752.5,599.5C 752.435,599.062 752.601,598.728 753,598.5C 774.412,600.148 795.912,601.148 817.5,601.5 Z"/></g>
<g><path style="opacity:1" fill="#fc9333" d="M 872.5,589.5 C 900.829,590.897 929.163,592.23 957.5,593.5C 955.6,606.666 952.934,619.666 949.5,632.5C 947.64,636.083 945.973,639.749 944.5,643.5C 911.828,642.288 879.162,640.954 846.5,639.5C 856.751,623.665 865.418,606.998 872.5,589.5 Z"/></g>
<g><path style="opacity:1" fill="#fcb749" d="M 749.5,622.5 C 748.448,626.426 747.782,630.426 747.5,634.5C 745.124,643.991 742.124,653.325 738.5,662.5C 729.306,662.439 720.306,661.772 711.5,660.5C 716.053,647.835 719.387,634.835 721.5,621.5C 724.777,621.784 727.943,621.451 731,620.5C 731.689,621.357 732.522,622.023 733.5,622.5C 738.107,621.953 743.44,621.953 749.5,622.5 Z"/></g>
<g><path style="opacity:1" fill="#b8662e" d="M 949.5,632.5 C 960.175,632.623 970.841,632.957 981.5,633.5C 976.297,652.567 969.964,671.234 962.5,689.5C 950.421,689.243 938.421,688.576 926.5,687.5C 927.5,684.833 928.5,682.167 929.5,679.5C 936.039,668.236 941.039,656.236 944.5,643.5C 945.973,639.749 947.64,636.083 949.5,632.5 Z"/></g>
<g><path style="opacity:1" fill="#fc8c36" d="M 747.5,634.5 C 772.84,635.773 798.174,637.106 823.5,638.5C 823.234,646.893 823.234,655.226 823.5,663.5C 831.862,656.139 839.528,648.139 846.5,639.5C 879.162,640.954 911.828,642.288 944.5,643.5C 941.039,656.236 936.039,668.236 929.5,679.5C 864.874,675.994 800.207,672.994 735.5,670.5C 736.892,667.993 737.892,665.327 738.5,662.5C 742.124,653.325 745.124,643.991 747.5,634.5 Z"/></g>
<g><path style="opacity:1" fill="#fcaf4b" d="M 711.5,660.5 C 720.306,661.772 729.306,662.439 738.5,662.5C 737.892,665.327 736.892,667.993 735.5,670.5C 731.439,679.622 727.106,688.622 722.5,697.5C 711.82,697.968 701.487,697.301 691.5,695.5C 699.035,684.306 705.701,672.639 711.5,660.5 Z"/></g>
<g><path style="opacity:1" fill="#fc8639" d="M 735.5,670.5 C 800.207,672.994 864.874,675.994 929.5,679.5C 928.5,682.167 927.5,684.833 926.5,687.5C 920.581,698.344 913.914,708.677 906.5,718.5C 902.55,719.098 898.55,719.432 894.5,719.5C 834.512,716.485 774.512,713.818 714.5,711.5C 717.167,706.833 719.833,702.167 722.5,697.5C 727.106,688.622 731.439,679.622 735.5,670.5 Z"/></g>
<g><path style="opacity:1" fill="#b85f32" d="M 926.5,687.5 C 938.421,688.576 950.421,689.243 962.5,689.5C 953.066,712.215 941.399,733.549 927.5,753.5C 913.801,753.289 899.801,752.789 885.5,752C 883.942,751.79 882.609,751.29 881.5,750.5C 890.597,740.406 898.93,729.74 906.5,718.5C 913.914,708.677 920.581,698.344 926.5,687.5 Z"/></g>
<g><path style="opacity:1" fill="#fda44c" d="M 691.5,695.5 C 701.487,697.301 711.82,697.968 722.5,697.5C 719.833,702.167 717.167,706.833 714.5,711.5C 706.029,724.779 696.362,737.113 685.5,748.5C 673.499,748.091 661.499,747.591 649.5,747C 647.292,746.809 645.292,746.309 643.5,745.5C 655.438,734.063 667.272,722.396 679,710.5C 683.185,705.429 687.352,700.429 691.5,695.5 Z"/></g>
<g><path style="opacity:1" fill="#fd7f3c" d="M 714.5,711.5 C 774.512,713.818 834.512,716.485 894.5,719.5C 898.55,719.432 902.55,719.098 906.5,718.5C 898.93,729.74 890.597,740.406 881.5,750.5C 874.825,758.174 867.492,765.174 859.5,771.5C 796.175,768.612 732.842,765.945 669.5,763.5C 674.833,758.5 680.167,753.5 685.5,748.5C 696.362,737.113 706.029,724.779 714.5,711.5 Z"/></g>
<g><path style="opacity:1" fill="#fc974c" d="M 643.5,745.5 C 645.292,746.309 647.292,746.809 649.5,747C 661.499,747.591 673.499,748.091 685.5,748.5C 680.167,753.5 674.833,758.5 669.5,763.5C 661.812,770.184 653.812,776.517 645.5,782.5C 633.317,782.358 621.317,781.692 609.5,780.5C 620.134,768.198 631.468,756.532 643.5,745.5 Z"/></g>
<g><path style="opacity:1" fill="#b85935" d="M 881.5,750.5 C 882.609,751.29 883.942,751.79 885.5,752C 899.801,752.789 913.801,753.289 927.5,753.5C 918.055,768.953 906.722,782.953 893.5,795.5C 875.034,793.506 856.367,792.173 837.5,791.5C 845.133,785.203 852.466,778.536 859.5,771.5C 867.492,765.174 874.825,758.174 881.5,750.5 Z"/></g>
<g><path style="opacity:1" fill="#fd793f" d="M 669.5,763.5 C 732.842,765.945 796.175,768.612 859.5,771.5C 852.466,778.536 845.133,785.203 837.5,791.5C 834.482,793.526 831.482,795.526 828.5,797.5C 765.512,794.342 702.512,791.342 639.5,788.5C 641.5,786.5 643.5,784.5 645.5,782.5C 653.812,776.517 661.812,770.184 669.5,763.5 Z"/></g>
<g><path style="opacity:1" fill="#fd8c4c" d="M 609.5,780.5 C 621.317,781.692 633.317,782.358 645.5,782.5C 643.5,784.5 641.5,786.5 639.5,788.5C 630.548,794.784 621.882,801.45 613.5,808.5C 610.728,808.78 608.228,808.113 606,806.5C 599.77,806.961 593.27,806.961 586.5,806.5C 593.452,797.214 601.119,788.547 609.5,780.5 Z"/></g>
<g><path style="opacity:1" fill="#fd7441" d="M 639.5,788.5 C 702.512,791.342 765.512,794.342 828.5,797.5C 810.409,811.247 791.742,824.247 772.5,836.5C 712.979,834.126 653.646,831.126 594.5,827.5C 600.527,820.806 606.86,814.473 613.5,808.5C 621.882,801.45 630.548,794.784 639.5,788.5 Z"/></g>
<g><path style="opacity:1" fill="#b85438" d="M 837.5,791.5 C 856.367,792.173 875.034,793.506 893.5,795.5C 877.059,814.275 858.726,830.942 838.5,845.5C 814.168,844.47 789.835,843.47 765.5,842.5C 767.833,840.5 770.167,838.5 772.5,836.5C 791.742,824.247 810.409,811.247 828.5,797.5C 831.482,795.526 834.482,793.526 837.5,791.5 Z"/></g>
<g><path style="opacity:1" fill="#fd6f43" d="M 594.5,827.5 C 653.646,831.126 712.979,834.126 772.5,836.5C 770.167,838.5 767.833,840.5 765.5,842.5C 758.518,847.141 751.518,851.807 744.5,856.5C 688.512,853.675 632.512,851.009 576.5,848.5C 581.656,840.764 587.656,833.764 594.5,827.5 Z"/></g>
<g><path style="opacity:1" fill="#fc7d4c" d="M 586.5,806.5 C 593.27,806.961 599.77,806.961 606,806.5C 608.228,808.113 610.728,808.78 613.5,808.5C 606.86,814.473 600.527,820.806 594.5,827.5C 587.656,833.764 581.656,840.764 576.5,848.5C 573.189,852.147 569.855,855.813 566.5,859.5C 560.248,858.631 553.915,858.298 547.5,858.5C 559.052,840.055 572.052,822.722 586.5,806.5 Z"/></g>
<g><path style="opacity:1" fill="#b84e3b" d="M 765.5,842.5 C 789.835,843.47 814.168,844.47 838.5,845.5C 806.719,869.563 773.719,891.896 739.5,912.5C 719.496,911.954 699.496,911.288 679.5,910.5C 691.576,898.753 704.242,887.753 717.5,877.5C 726.72,870.73 735.72,863.73 744.5,856.5C 751.518,851.807 758.518,847.141 765.5,842.5 Z"/></g>
<g><path style="opacity:1" fill="#fd6d45" d="M 576.5,848.5 C 632.512,851.009 688.512,853.675 744.5,856.5C 735.72,863.73 726.72,870.73 717.5,877.5C 714.232,876.178 710.565,875.511 706.5,875.5C 658.983,873.404 611.483,871.071 564,868.5C 562.284,868.748 560.784,869.415 559.5,870.5C 552.062,882.522 544.562,893.855 537,904.5C 536.309,902.109 535.309,902.109 534,904.5C 531.266,903.638 531.099,902.805 533.5,902C 531.519,901.395 531.185,900.395 532.5,899C 530.576,898.729 528.576,897.896 526.5,896.5C 532.489,883.182 539.489,870.515 547.5,858.5C 553.915,858.298 560.248,858.631 566.5,859.5C 569.855,855.813 573.189,852.147 576.5,848.5 Z"/></g>
<g><path style="opacity:1" fill="#fd6747" d="M 717.5,877.5 C 704.242,887.753 691.576,898.753 679.5,910.5C 671.859,917.472 664.193,924.472 656.5,931.5C 656.082,930.778 655.416,930.278 654.5,930C 615.806,928.423 577.14,926.423 538.5,924C 536.951,922.786 535.785,921.286 535,919.5C 534.667,920.167 534.333,920.833 534,921.5C 533,920.5 532,919.5 531,918.5C 529.552,921.455 527.385,923.455 524.5,924.5C 524.33,925.822 524.663,926.989 525.5,928C 523.96,929.851 522.46,931.018 521,931.5C 520.5,930.333 519.667,929.5 518.5,929C 518.381,927.719 518.881,926.552 520,925.5C 520.667,928.167 521.333,928.167 522,925.5C 522.556,927.595 523.056,927.762 523.5,926C 522.991,924.831 522.158,923.998 521,923.5C 520,924.833 519,924.833 518,923.5C 516.35,924.891 515.85,926.391 516.5,928C 515.756,929.039 514.756,929.539 513.5,929.5C 516.871,918.04 521.205,907.04 526.5,896.5C 528.576,897.896 530.576,898.729 532.5,899C 531.185,900.395 531.519,901.395 533.5,902C 531.099,902.805 531.266,903.638 534,904.5C 535.309,902.109 536.309,902.109 537,904.5C 544.562,893.855 552.062,882.522 559.5,870.5C 560.784,869.415 562.284,868.748 564,868.5C 611.483,871.071 658.983,873.404 706.5,875.5C 710.565,875.511 714.232,876.178 717.5,877.5 Z"/></g>
<g><path style="opacity:1" fill="#fd6049" d="M 656.5,931.5 C 646.123,943.208 636.123,955.208 626.5,967.5C 626.167,967.5 625.833,967.5 625.5,967.5C 585.511,965.58 545.511,963.913 505.5,962.5C 507.002,951.11 509.668,940.11 513.5,929.5C 514.756,929.539 515.756,929.039 516.5,928C 515.85,926.391 516.35,924.891 518,923.5C 519,924.833 520,924.833 521,923.5C 522.158,923.998 522.991,924.831 523.5,926C 523.056,927.762 522.556,927.595 522,925.5C 521.333,928.167 520.667,928.167 520,925.5C 518.881,926.552 518.381,927.719 518.5,929C 519.667,929.5 520.5,930.333 521,931.5C 522.46,931.018 523.96,929.851 525.5,928C 524.663,926.989 524.33,925.822 524.5,924.5C 527.385,923.455 529.552,921.455 531,918.5C 532,919.5 533,920.5 534,921.5C 534.333,920.833 534.667,920.167 535,919.5C 535.785,921.286 536.951,922.786 538.5,924C 577.14,926.423 615.806,928.423 654.5,930C 655.416,930.278 656.082,930.778 656.5,931.5 Z"/></g>
<g><path style="opacity:1" fill="#b8473f" d="M 679.5,910.5 C 699.496,911.288 719.496,911.954 739.5,912.5C 713.429,929.552 688.762,948.552 665.5,969.5C 652.493,968.924 639.493,968.257 626.5,967.5C 636.123,955.208 646.123,943.208 656.5,931.5C 664.193,924.472 671.859,917.472 679.5,910.5 Z"/></g>
<g><path style="opacity:1" fill="#00062a" d="M 1426.5,848.5 C 1402.59,1004.51 1334.25,1137.01 1221.5,1246C 1114.2,1346.64 987.203,1407.14 840.5,1427.5C 839.761,1427.63 839.094,1427.46 838.5,1427C 843.5,1422 848.5,1417 853.5,1412C 1036.17,1230.67 1218.83,1049.33 1401.5,868C 1409.97,860.531 1418.14,852.698 1426,844.5C 1426.49,845.793 1426.66,847.127 1426.5,848.5 Z"/></g>
<g><path style="opacity:1" fill="#fd5a4c" d="M 505.5,962.5 C 545.511,963.913 585.511,965.58 625.5,967.5C 612.797,984.902 602.13,1003.57 593.5,1023.5C 564.576,1021.7 535.576,1020.2 506.5,1019C 505.186,1018.02 504.186,1016.85 503.5,1015.5C 501.839,997.699 502.505,980.033 505.5,962.5 Z"/></g>
<g><path style="opacity:1" fill="#b84142" d="M 625.5,967.5 C 625.833,967.5 626.167,967.5 626.5,967.5C 639.493,968.257 652.493,968.924 665.5,969.5C 644.053,990.604 627.386,1014.94 615.5,1042.5C 606.225,1041.71 596.892,1041.05 587.5,1040.5C 589.348,1034.77 591.348,1029.11 593.5,1023.5C 602.13,1003.57 612.797,984.902 625.5,967.5 Z"/></g>
<g><path style="opacity:1" fill="#fd544f" d="M 503.5,1015.5 C 504.186,1016.85 505.186,1018.02 506.5,1019C 535.576,1020.2 564.576,1021.7 593.5,1023.5C 591.348,1029.11 589.348,1034.77 587.5,1040.5C 582.78,1055.11 580.113,1070.11 579.5,1085.5C 560.171,1084.44 540.837,1083.44 521.5,1082.5C 511.934,1061.24 505.934,1038.91 503.5,1015.5 Z"/></g>
<g><path style="opacity:1" fill="#b83a46" d="M 587.5,1040.5 C 596.892,1041.05 606.225,1041.71 615.5,1042.5C 602.497,1079.86 598.497,1118.2 603.5,1157.5C 604.872,1174.52 607.539,1191.18 611.5,1207.5C 611.869,1209.99 611.203,1210.66 609.5,1209.5C 609.167,1208.83 608.833,1208.17 608.5,1207.5C 604.369,1197.02 599.869,1186.35 595,1175.5C 583.635,1146.59 578.468,1116.59 579.5,1085.5C 580.113,1070.11 582.78,1055.11 587.5,1040.5 Z"/></g>
<g><path style="opacity:1" fill="#fc4c52" d="M 521.5,1082.5 C 540.837,1083.44 560.171,1084.44 579.5,1085.5C 578.468,1116.59 583.635,1146.59 595,1175.5C 599.869,1186.35 604.369,1197.02 608.5,1207.5C 599.466,1198.47 590.799,1189.13 582.5,1179.5C 556.874,1150.6 536.541,1118.27 521.5,1082.5 Z"/></g>
<g><path style="opacity:1" fill="#070c31" d="M 582.5,1179.5 C 590.799,1189.13 599.466,1198.47 608.5,1207.5C 608.833,1208.17 609.167,1208.83 609.5,1209.5C 556.86,1261.47 504.527,1313.81 452.5,1366.5C 439.483,1360.33 426.816,1353.66 414.5,1346.5C 469.557,1290.94 524.89,1235.44 580.5,1180C 581.094,1179.54 581.761,1179.37 582.5,1179.5 Z"/></g>
</svg>
