<?xml version="1.0" encoding="UTF-8"?>
<svg xmlns="http://www.w3.org/2000/svg" xmlns:xlink="http://www.w3.org/1999/xlink" viewBox="0 0 500 500">
  <defs>
    <style>
      .cls-1 {
        fill: url(#linear-gradient);
      }

      .cls-2 {
        fill: #191d8a;
        mix-blend-mode: multiply;
        opacity: .3;
      }

      .cls-3 {
        fill: url(#Degradado_sin_nombre_20);
        mix-blend-mode: overlay;
        opacity: .5;
      }

      .cls-4 {
        fill: url(#Degradado_sin_nombre_21);
      }

      .cls-5 {
        fill: url(#Degradado_sin_nombre_14);
      }

      .cls-6 {
        isolation: isolate;
      }
    </style>
    <linearGradient id="linear-gradient" x1="88.94" y1="87.75" x2="398.8" y2="399.9" gradientUnits="userSpaceOnUse">
      <stop offset="0" stop-color="#151a40"/>
      <stop offset="1" stop-color="#00062a"/>
    </linearGradient>
    <linearGradient id="Degradado_sin_nombre_21" data-name="Degradado sin nombre 21" x1="748.44" y1="-346.91" x2="508.47" y2="-262.39" gradientTransform="translate(296.25 951.43) rotate(-67.93)" gradientUnits="userSpaceOnUse">
      <stop offset="0" stop-color="#fdb922"/>
      <stop offset=".42" stop-color="#fd8539"/>
      <stop offset=".8" stop-color="#fd5b4c"/>
      <stop offset="1" stop-color="#fe4c54"/>
    </linearGradient>
    <linearGradient id="Degradado_sin_nombre_14" data-name="Degradado sin nombre 14" x1="787.54" y1="-384.04" x2="690.95" y2="-278.39" gradientTransform="translate(296.25 951.43) rotate(-67.93)" gradientUnits="userSpaceOnUse">
      <stop offset="0" stop-color="#fff"/>
      <stop offset=".27" stop-color="#f6f6f6"/>
      <stop offset=".71" stop-color="#dfdfdf"/>
      <stop offset="1" stop-color="#ccc"/>
    </linearGradient>
    <linearGradient id="Degradado_sin_nombre_20" data-name="Degradado sin nombre 20" x1="702.93" y1="-373.46" x2="558.76" y2="-322.69" gradientTransform="translate(296.25 951.43) rotate(-67.93)" gradientUnits="userSpaceOnUse">
      <stop offset="0" stop-color="#fff"/>
      <stop offset=".08" stop-color="#fff" stop-opacity=".96"/>
      <stop offset=".23" stop-color="#fff" stop-opacity=".86"/>
      <stop offset=".41" stop-color="#fff" stop-opacity=".7"/>
      <stop offset=".62" stop-color="#fff" stop-opacity=".47"/>
      <stop offset=".86" stop-color="#fff" stop-opacity=".19"/>
      <stop offset="1" stop-color="#fff" stop-opacity="0"/>
    </linearGradient>
  </defs>
  <g class="cls-6">
    <g id="Layer_1" data-name="Layer 1">
      <circle class="cls-1" cx="250" cy="250" r="228"/>
      <g>
        <path class="cls-4" d="M309.23,123.71c14.67,13.56,29.3,38.1,20.14,79.55-1.68,7.6-4.16,15.75-7.58,24.52-34.66,88.71-140.96,66.81-117.9,175.74-29.24-29.49-38.13-55.55-35.71-78.7,3.56-33.96,31.47-61.65,55.25-84.71,12.46-12.08,17.21-24.83,17.54-36.98,.91-32.09-29.03-59.94-29.03-59.94,0,0,4.1-.65,10.2-.48,6.7,.19,15.81,1.37,24.55,5.52,0,0-4.36-19.74-56.76-49.7,0,0,45.57-13.5,96.89,29.09l-.62-18.46s11.53,3.89,23.03,14.56Z"/>
        <path class="cls-5" d="M329.36,203.26c-10.12-27.34-30.74-40.85-30.74-40.85-4.66,46.15-24.24,59.08-24.24,59.08,2.87-28.5-14.1-40.26-14.1-40.26,0,0-8.84,15.73-19.33,21.88,.91-32.09-29.03-59.94-29.03-59.94,0,0,18.05-2.87,34.75,5.05,0,0-4.36-19.74-56.75-49.71,0,0,45.57-13.5,96.88,29.1l-.61-18.47s59.53,20.11,43.17,94.12Z"/>
        <path class="cls-2" d="M309.23,123.71c14.67,13.56,29.3,38.1,20.14,79.55-1.68,7.6-4.16,15.75-7.58,24.52-34.66,88.71-140.96,66.81-117.9,175.74-29.92-56.68,7.33-93.49,64.87-131.81,57.54-38.32,61.32-93.63,40.48-148Z"/>
        <path class="cls-3" d="M222.13,142.7c20.31,14.63,39.21,45.83,22.06,83.41-20.28,44.44-44.92,26.69-76.01,98.72h-.01c3.56-33.97,31.47-61.66,55.25-84.72,12.46-12.08,17.21-24.83,17.54-36.98,.91-32.09-29.03-59.94-29.03-59.94,0,0,4.1-.65,10.2-.48Z"/>
      </g>
    </g>
  </g>
</svg>